<svg fill="none" height="36" viewBox="0 0 36 36" width="36" xmlns="http://www.w3.org/2000/svg" xmlns:xlink="http://www.w3.org/1999/xlink"><clipPath id="a"><path d="m12.5835 10.5h11.25v15.4167h-11.25z"/></clipPath><rect fill="#faf5ff" height="36" rx="8" width="36"/><g clip-path="url(#a)" fill="#805ad5"><path d="m18.2083 17.375c-.5356 0-1.0593.1588-1.5046.4564-.4454.2976-.7926.7206-.9975 1.2155-.205.4949-.2587 1.0394-.1542 1.5648s.3625 1.0079.7413 1.3867c.3787.3788.8613.6367 1.3867.7412.5253.1045 1.0699.0509 1.5648-.1541s.9178-.5521 1.2154-.9975.4565-.969.4565-1.5047c0-.7183-.2854-1.4071-.7933-1.915-.5079-.508-1.1968-.7933-1.9151-.7933zm0 3.9583c-.2472 0-.4889-.0733-.6944-.2106-.2056-.1374-.3658-.3326-.4604-.561s-.1194-.4798-.0711-.7222c.0482-.2425.1672-.4652.3421-.64.1748-.1749.3975-.2939.64-.3421.2424-.0483.4938-.0235.7222.0711s.4236.2548.561.4604c.1373.2055.2106.4472.2106.6944 0 .3316-.1317.6495-.3661.8839s-.5523.3661-.8839.3661z"/><path d="m22.1668 10.5h-7.9166c-.4421 0-.866.1756-1.1785.4882-.3126.3125-.4882.7364-.4882 1.1785v12.0833c0 .442.1756.866.4882 1.1785.3125.3126.7364.4882 1.1785.4882h7.9166c.4421 0 .866-.1756 1.1785-.4882.3126-.3125.4882-.7365.4882-1.1785v-12.0833c0-.4421-.1756-.866-.4882-1.1785-.3125-.3126-.7364-.4882-1.1785-.4882zm-6.6666 1.6667c.2472 0 .4889.0733.6944.2106.2056.1374.3658.3326.4604.561s.1194.4798.0711.7222c-.0482.2425-.1672.4652-.3421.6401-.1748.1748-.3975.2938-.64.342-.2425.0483-.4938.0235-.7222-.0711s-.4236-.2548-.561-.4604c-.1373-.2055-.2106-.4472-.2106-.6944 0-.3316.1317-.6495.3661-.8839s.5523-.3661.8839-.3661zm2.7083 11.875c-.7829 0-1.5482-.2322-2.1991-.6671-.651-.435-1.1583-1.0532-1.4579-1.7765s-.378-1.5192-.2253-2.287c.1528-.7678.5297-1.4731 1.0833-2.0267s1.2589-.9306 2.0268-1.0833c.7678-.1528 1.5637-.0744 2.287.2252s1.3415.807 1.7764 1.4579c.435.6509.6671 1.4162.6671 2.1991-.0011 1.0495-.4185 2.0557-1.1606 2.7978s-1.7482 1.1595-2.7977 1.1606z"/></g></svg>