<svg fill="none" height="36" viewBox="0 0 36 36" width="36" xmlns="http://www.w3.org/2000/svg" xmlns:xlink="http://www.w3.org/1999/xlink"><clipPath id="a"><path d="m7.5 9.5h21v17h-21z"/></clipPath><rect fill="#e6fffa" height="36" rx="8" width="36"/><g clip-path="url(#a)" fill="#38b2ac"><path d="m28 9.5h-6.5c-.1326 0-.2598.05268-.3536.14645-.0937.09376-.1464.22094-.1464.35355v4h7.5v-4c0-.13261-.0527-.25979-.1464-.35355-.0938-.09377-.221-.14645-.3536-.14645z"/><path d="m21 15.5v10.5c0 .1326.0527.2598.1464.3536.0938.0937.221.1464.3536.1464h6.5c.1326 0 .2598-.0527.3536-.1464.0937-.0938.1464-.221.1464-.3536v-10.5zm3.75 8.5c-.1978 0-.3911-.0586-.5556-.1685-.1644-.1099-.2926-.2661-.3683-.4488s-.0955-.3838-.0569-.5778.1338-.3722.2737-.512c.1398-.1399.318-.2351.512-.2737s.3951-.0188.5778.0569.3389.2039.4488.3683c.1099.1645.1685.3578.1685.5556 0 .2652-.1054.5196-.2929.7071s-.4419.2929-.7071.2929zm-5-12.5v-1.5c.0034-.16956.0304-.33783.08-.5h-11.33c-.26522 0-.51957.10536-.70711.29289-.18753.18754-.29289.44191-.29289.70711v11.5c0 .2652.10536.5196.29289.7071.18754.1875.44189.2929.70711.2929h5.415l-.33 2h-1.835c-.1989 0-.3897.079-.5303.2197-.1407.1406-.2197.3314-.2197.5303s.079.3897.2197.5303c.1406.1407.3314.2197.5303.2197h8.075c-.0499-.162-.0752-.3305-.075-.5v-1h-1.335l-.33-2h1.665v-2h-10.25v-9.5z"/></g></svg>