<svg fill="none" height="36" viewBox="0 0 36 36" width="36" xmlns="http://www.w3.org/2000/svg" xmlns:xlink="http://www.w3.org/1999/xlink"><clipPath id="a"><path d="m13 8h10v20h-10z"/></clipPath><rect fill="#ebf8ff" height="36" rx="8" width="36"/><g clip-path="url(#a)" fill="#2b6cb0"><path d="m14.5 27c0 .2652.1054.5196.2929.7071s.4419.2929.7071.2929h5c.2652 0 .5196-.1054.7071-.2929s.2929-.4419.2929-.7071v-2.75h-7zm6-19h-5c-.2652 0-.5196.10536-.7071.29289-.1875.18754-.2929.44189-.2929.70711v2.75h7v-2.75c0-.26522-.1054-.51957-.2929-.70711-.1875-.18753-.4419-.29289-.7071-.29289z"/><path d="m22.05 13h-8.1c-.2565.0128-.4981.1238-.675.31s-.2753.4332-.275.69v8c-.0003.2568.0981.5038.275.69s.4185.2972.675.31h8.1c.2565-.0128.4981-.1238.675-.31s.2753-.4332.275-.69v-8c.0003-.2568-.0981-.5038-.275-.69s-.4185-.2972-.675-.31zm-3.05 5.25c.0004.1165-.0265.2315-.0786.3357s-.128.1947-.2214.2643l-2 1.5c-.1302.0967-.2878.1493-.45.15-.1574 0-.3108-.0495-.4385-.1416-.1277-.092-.2232-.2219-.273-.3712-.0498-.1494-.0513-.3106-.0044-.4608.047-.1503.14-.282.2659-.3764l1.7-1.275v-2.125c0-.1989.079-.3897.2197-.5303.1406-.1407.3314-.2197.5303-.2197s.3897.079.5303.2197c.1407.1406.2197.3314.2197.5303z"/></g></svg>